<svg xmlns="http://www.w3.org/2000/svg" xmlns:xlink="http://www.w3.org/1999/xlink" version="1.1" id="Layer_1" x="0px" y="0px" width="100%" viewBox="0 0 2835 2835" enable-background="new 0 0 2835 2835" xml:space="preserve">
<path fill="#000000" opacity="1.000000" stroke="none" d=" M1926.000000,2838.000000   C1284.000122,2838.000000 643.000244,2838.000000 2.000258,2838.000000   C2.000172,1892.666992 2.000172,947.333923 2.000086,2.000638   C947.332825,2.000426 1892.665649,2.000426 2837.999023,2.000213   C2837.999268,947.332703 2837.999268,1892.665405 2837.999512,2837.999023   C2534.333252,2838.000000 2230.666748,2838.000000 1926.000000,2838.000000  z"/>
<path fill="#ffffff" opacity="1.000000" stroke="none" d=" M1570.467163,1806.427002   C1800.525269,1564.824463 2030.100586,1323.739502 2259.946533,1082.370361   C2255.586914,1078.957153 2251.468018,1080.266235 2247.708008,1080.263550   C2131.042236,1080.183105 2014.376587,1080.196777 1897.710938,1080.196899   C1818.044922,1080.196899 1738.378906,1080.197632 1658.712891,1080.197754   C1656.712891,1080.197754 1654.711182,1080.250488 1652.713379,1080.182861   C1645.259888,1079.930542 1645.053345,1079.879883 1645.033813,1072.036499   C1644.958252,1041.703613 1644.955078,1011.370361 1645.033813,981.037476   C1645.055176,972.762634 1645.243164,972.740356 1653.446533,972.558655   C1655.445557,972.514343 1657.446411,972.549988 1659.446411,972.549988   C1938.110718,972.549561 2216.775146,972.547119 2495.439453,972.572327   C2498.972900,972.572632 2502.614990,972.033691 2506.223145,973.290283   C2502.879639,979.937805 1375.685913,2163.965332 1367.672119,2169.500977   C1367.372803,2169.354248 1367.037109,2169.252197 1366.785034,2169.047363   C1366.559937,2168.864258 1366.381592,2168.586670 1366.266113,2168.315430   C1366.137695,2168.013428 1366.081177,2167.674316 1366.035156,2167.345459   C1365.989380,2167.016846 1365.993652,2166.680664 1365.979736,2166.347900   C1365.965698,2166.014893 1365.951904,2165.681641 1365.945557,2165.348633   C1365.939209,2165.015381 1365.941772,2164.681885 1365.941040,2164.348633   C1365.940308,2164.015381 1365.940186,2163.681885 1365.939941,2163.348633   C1365.939819,2163.015381 1365.940186,2162.681885 1365.940308,2162.348633   C1365.940430,2162.015381 1365.940796,2161.681885 1365.940796,2161.348633   C1365.940918,2160.682129 1365.941284,2160.015381 1365.941284,2159.348877   C1365.942017,1757.018799 1365.942505,1354.688721 1365.943115,952.358704   C1365.943115,952.025391 1365.943604,951.692017 1365.943848,951.358704   C1365.944092,951.025391 1365.944336,950.692017 1365.944458,950.358704   C1365.944580,950.025391 1365.944824,949.692017 1365.944458,949.358704   C1365.944092,949.025391 1365.943848,948.692017 1365.941895,948.358704   C1365.939819,948.025391 1365.937866,947.692078 1365.932129,947.358826   C1365.926392,947.025574 1365.922974,946.692017 1365.905518,946.359314   C1365.888184,946.027283 1365.865601,945.694824 1365.825439,945.364929   C1365.785278,945.034363 1365.768677,944.688416 1365.652710,944.383057   C1365.543701,944.096130 1365.344482,943.830322 1365.137573,943.597229   C1364.918213,943.349854 1364.643066,943.151917 1363.291504,941.968933   C1101.928345,1216.801270 840.523315,1491.677490 579.345825,1766.314575   C581.310181,1770.070435 583.884216,1769.084229 586.028259,1769.190430   C589.020935,1769.338623 592.026367,1769.230713 595.026306,1769.230713   C789.024719,1769.230835 983.023071,1769.227661 1177.021484,1769.237549   C1191.640381,1769.238281 1190.508789,1767.870850 1190.510498,1782.636963   C1190.513550,1810.970093 1190.543335,1839.303101 1190.493042,1867.636230   C1190.477051,1876.634766 1190.376709,1876.644653 1181.806641,1876.808960   C1179.474121,1876.853638 1177.140137,1876.819214 1174.806763,1876.819214   C897.809021,1876.819580 620.811340,1876.823730 343.813629,1876.774902   C340.253448,1876.774292 336.528320,1877.647827 333.284668,1876.028198   C333.020447,1875.403687 332.843597,1875.132935 332.799377,1874.841919   C332.750671,1874.520874 332.697296,1874.085083 332.864349,1873.865723   C333.865051,1872.551392 334.847168,1871.207520 335.982880,1870.013550   C712.264221,1474.416260 1088.557617,1078.830200 1464.886597,683.278137   C1465.220825,682.926697 1466.096069,683.089722 1467.980225,682.855713   C1467.980225,1091.985229 1467.980225,1500.958618 1467.980225,1909.299194   C1469.523193,1910.070679 1469.797485,1910.304443 1470.088135,1910.327026   C1470.401245,1910.351318 1470.820435,1910.275879 1471.037354,1910.075439   C1473.225830,1908.051758 1475.478027,1906.085083 1477.532959,1903.931274   C1508.365967,1871.617676 1539.171997,1839.278076 1570.467163,1806.427002  z"/>
<path fill="#ffffff" opacity="1.000000" stroke="none" d=" M2208.000000,680.056335   C2400.732910,680.056335 2592.465820,680.056335 2784.040039,680.056335   C2784.627197,684.413025 2782.068115,685.444641 2780.582764,687.013672   C2750.574219,718.714966 2720.450195,750.306885 2690.520020,782.081787   C2686.799805,786.031433 2682.990479,788.285706 2677.497070,787.694580   C2674.532227,787.375549 2671.504883,787.636536 2668.505859,787.636536   C2331.942139,787.636414 1995.378540,787.644348 1658.814941,787.610535   C1643.820435,787.609070 1645.026611,789.719971 1645.005981,773.656250   C1644.971802,746.997803 1644.960449,720.339172 1645.010986,693.680725   C1645.039307,678.738220 1643.443359,680.069946 1658.168945,680.066711   C1752.140259,680.046021 1846.111450,680.056274 1940.082764,680.056335   C2029.055176,680.056335 2118.027588,680.056335 2208.000000,680.056335  z"/>
<path fill="#ffffff" opacity="1.000000" stroke="none" d=" M614.000000,2063.787598   C633.991699,2063.788086 652.983582,2063.749512 671.975098,2063.804688   C681.599304,2063.832764 681.708984,2063.908936 681.724487,2072.961182   C681.776428,2103.281250 681.780884,2133.601562 681.715088,2163.921631   C681.698486,2171.574219 681.547485,2171.582031 673.973999,2171.775146   C672.309143,2171.817627 670.642273,2171.782471 668.976318,2171.782471   C467.397583,2171.782471 265.818848,2171.782715 64.240089,2171.782715   C60.653732,2171.782715 57.067371,2171.782715 53.032463,2171.782715   C53.058937,2167.500000 55.928558,2165.936768 57.828785,2163.931641   C87.162918,2132.976562 116.677505,2102.190918 145.807388,2071.045654   C150.830475,2065.674805 155.917175,2063.637695 163.196335,2063.646729   C313.130707,2063.834473 463.065369,2063.787842 614.000000,2063.787598  z"/>
</svg>