<svg version="1.1" xmlns="http://www.w3.org/2000/svg" xmlns:xlink="http://www.w3.org/1999/xlink" width="1568" height="1181"><desc>frame%20Interaction%20between%20beacons%2C%20iOS%20mobile%20app%20and%20the%20server%0A%0Aentity%20%22Self-broadcast%20Beacon%22%20as%20Beacon%0A%0Aparticipantgroup%20iOS%0A%20participant%20LocationManager%0A%20participant%20%22Mobile%20Application%22%20as%20App%0Aend%0A%0Aparticipantgroup%20Server%0A%20entity%20%22RESTful%20APIs%22%20as%20API%0A%20database%20Datastore%0Aend%0A%0AApp%20-%3E%20App%3A%20startScanning(Beacon_UUID)%0A%0Aloop%20unless%20stopScanning(Beacon_UUID)%0A%0A%5B-%3ELocationManager%3A%20Beacon%20Monitoring%20and%20Ranging%20workflow%20%5Cn%20due%20to%20presence%20of%20a%20beacon%20nearby%0A%0Aautoactivation%20on%0A%0ALocationManager%20-%3E%20App%3A%20Event%3AonBeaconDetected(beacons)%5CnBeacon%7Buuid%2C%20major%2C%20minor%2C%20distance%2C%20rssi%7D%0A%0AApp%20-%3E%20API%3A%20GET%20beacons%2F%3CUUID%3Amajor%3Aminor%3E%20%5Cnfor%20each%20detected%20beacon%20to%20fetch%20sensors%0A%0AAPI%20-%3E%20Datastore%3A%20query%0AAPI%20%3C--%20Datastore%3Aresult%0A%0AApp%20%3C--%20API%3A%20Response%20containing%20sensors%20information%20%5Cnassociated%20with%20the%20specified%20beacons%0A%0AApp%20%3C--%20App%3A%20Update%20UI%20with%20the%20list%20of%20nearby%20devices%20%0A%0Aend</desc><defs/><g><g/><g/><g/><g/><g/><g/><g/><g/><g/><g/><g/><g/><g/><g/><g/><g/><g/><g/><g/><g/><g/><g/><g/><g/><g/><g/><g/><g/><g/><g/><g/><g/><g/><g/><g/><g/><g/><g/><g/><g/><g/><g/><g/><g/><g/><g/><g/><g/><g/><g/><g/><g/><g/><g/><g/><g/><g/><g/><g/><g/><g/><g/><g/><g/><g/><g/><g/><g/><g/><g/><g/><g/><g/><g/><g/><g/><g/><g/><g/><g/><g/><g/><g/><g/><g/><g/><g/><g/><g/><g/><g/><g/><g/><g/><g/><g/><g/><g/><g/><g/><g/><g/><g/><g/><g/><g/><g/><g/><g/><g/><g/><g/><g/><g/><g/><g/><g/><g/><g/><g/><g><rect fill="white" stroke="none" x="0" y="0" width="1568" height="1181"/></g><g><g><path fill="none" stroke="black" paint-order="fill stroke markers" d=" M 403.2725843128562 133.81672887950003 L 938.8741731812551 133.81672887950003 L 938.8741731812551 1131.413877181 L 403.2725843128562 1131.413877181 L 403.2725843128562 133.81672887950003 Z" stroke-miterlimit="10" stroke-width="1.9895439916666666" stroke-dasharray=""/></g><g><text fill="black" stroke="none" font-family="sans-serif" font-size="11pt" font-style="normal" font-weight="normal" text-decoration="normal" x="658.8733789377904" y="167.24106793950003" text-anchor="start" dominant-baseline="alphabetic" xml:space="preserve">iOS</text></g><g><path fill="none" stroke="black" paint-order="fill stroke markers" d=" M 1218.2356568464854 85.59018252150003 L 1458.6991754168791 85.59018252150003 L 1458.6991754168791 1131.413877181 L 1218.2356568464854 1131.413877181 L 1218.2356568464854 85.59018252150003 Z" stroke-miterlimit="10" stroke-width="1.9895439916666666" stroke-dasharray=""/></g><g><text fill="black" stroke="none" font-family="sans-serif" font-size="11pt" font-style="normal" font-weight="normal" text-decoration="normal" x="1316.9340833069753" y="119.01452158150003" text-anchor="start" dominant-baseline="alphabetic" xml:space="preserve">Server</text></g></g><g><path fill="none" stroke="black" paint-order="fill stroke markers" d=" M 254.79767119585733 255.218703251 L 254.79767119585733 1131.413877181" stroke-miterlimit="10" stroke-width="1.9895439916666666" stroke-dasharray="18.36502146153846,7.9581759666666665"/><path fill="none" stroke="black" paint-order="fill stroke markers" d=" M 497.63037744670976 255.218703251 L 497.63037744670976 1131.413877181" stroke-miterlimit="10" stroke-width="1.9895439916666666" stroke-dasharray="18.36502146153846,7.9581759666666665"/><path fill="none" stroke="black" paint-order="fill stroke markers" d=" M 841.6330468412248 255.218703251 L 841.6330468412248 1131.413877181" stroke-miterlimit="10" stroke-width="1.9895439916666666" stroke-dasharray="18.36502146153846,7.9581759666666665"/><path fill="none" stroke="black" paint-order="fill stroke markers" d=" M 1274.906254384132 255.218703251 L 1274.906254384132 1131.413877181" stroke-miterlimit="10" stroke-width="1.9895439916666666" stroke-dasharray="18.36502146153846,7.9581759666666665"/><path fill="none" stroke="black" paint-order="fill stroke markers" d=" M 1399.0128556668792 255.218703251 L 1399.0128556668792 1131.413877181" stroke-miterlimit="10" stroke-width="1.9895439916666666" stroke-dasharray="18.36502146153846,7.9581759666666665"/></g><g><g><path fill="white" stroke="black" paint-order="fill stroke markers" d=" M 290.25134512735735 183.45187238360003 A 35.453673931500006 35.453673931500006 0 1 1 290.25132740052186 183.41641871557746 M 217.31466239285731 222.15248210950006 L 292.28067999885735 222.15248210950006" stroke-miterlimit="10" stroke-width="4.058669743" stroke-dasharray=""/></g><g><text fill="black" stroke="none" font-family="sans-serif" font-size="11pt" font-style="normal" font-weight="normal" text-decoration="normal" x="180.81434142290811" y="248.05634488100003" text-anchor="start" dominant-baseline="alphabetic" xml:space="preserve">Self-broadcast Beacon</text></g><path fill="none" stroke="none"/><g><path fill="white" stroke="black" paint-order="fill stroke markers" d=" M 415.2098482628562 190.75747792100003 L 580.0509066305633 190.75747792100003 L 580.0509066305633 255.21870325100002 L 415.2098482628562 255.21870325100002 L 415.2098482628562 190.75747792100003 Z" stroke-miterlimit="10" stroke-width="3.819924464" stroke-dasharray=""/></g><g><g/><text fill="black" stroke="none" font-family="sans-serif" font-size="11pt" font-style="normal" font-weight="normal" text-decoration="normal" x="441.11371103435624" y="231.34417535100005" text-anchor="start" dominant-baseline="alphabetic" xml:space="preserve">LocationManager</text></g><path fill="none" stroke="none"/><g><path fill="white" stroke="black" paint-order="fill stroke markers" d=" M 756.3291844511945 190.99622320000003 L 926.936909231255 190.99622320000003 L 926.936909231255 255.21870325100002 L 756.3291844511945 255.21870325100002 L 756.3291844511945 190.99622320000003 Z" stroke-miterlimit="10" stroke-width="3.819924464" stroke-dasharray=""/></g><g><text fill="black" stroke="none" font-family="sans-serif" font-size="11pt" font-style="normal" font-weight="normal" text-decoration="normal" x="782.2330453153459" y="231.34417535100005" text-anchor="start" dominant-baseline="alphabetic" xml:space="preserve">Mobile Application</text></g><g><path fill="white" stroke="black" paint-order="fill stroke markers" d=" M 1310.3599283156318 183.45187238360003 A 35.453673931500006 35.453673931500006 0 1 1 1310.3599105887963 183.41641871557746 M 1237.423245581132 222.15248210950006 L 1312.3892631871317 222.15248210950006" stroke-miterlimit="10" stroke-width="4.058669743" stroke-dasharray=""/></g><g><text fill="black" stroke="none" font-family="sans-serif" font-size="11pt" font-style="normal" font-weight="normal" text-decoration="normal" x="1230.1729207964854" y="248.05634488100003" text-anchor="start" dominant-baseline="alphabetic" xml:space="preserve">RESTful APIs</text></g><g><path fill="white" stroke="black" paint-order="fill stroke markers" d=" M 1364.1560449328792 208.424628567 L 1364.1560449328792 158.28811997700004 L 1433.8696664008792 158.28811997700004 L 1433.8696664008792 208.424628567" stroke-miterlimit="10" stroke-width="4.058669743" stroke-dasharray=""/><path fill="white" stroke="black" paint-order="fill stroke markers" d=" M 1433.8696664008792 156.54527944030005 L 1433.8679235748662 156.7028486982551 L 1433.8626952711081 156.8604021994157 L 1433.853982012431 157.01792418856294 L 1433.8417846701536 157.17539891362927 L 1433.8261044639999 157.33281062727332 L 1433.8069429619773 157.49014358845497 L 1433.7843020802202 157.64738206400918 L 1433.758184082798 157.80451033021944 L 1433.7285915814882 157.96151267439006 L 1433.695527535517 158.1183733964175 L 1433.6589952512609 158.2750768103602 L 1433.6189983819181 158.4316072460074 L 1433.5755409271421 158.58794905044593 L 1433.5286272326423 158.74408658962568 L 1433.478261989749 158.90000424992286 L 1433.4244502349445 159.0556864397013 L 1433.3671973493592 159.21111759087182 L 1433.3065090582345 159.3662821604488 L 1433.2423914303483 159.52116463210461 L 1433.1748508774103 159.67574951772113 L 1433.1038941534198 159.8300213589386 L 1433.0295283539895 159.98396472870152 L 1432.9517609156376 160.13756423280114 L 1432.8705996150431 160.29080451141508 L 1432.7860525682688 160.44367024064314 L 1432.6981282299482 160.59614613403986 L 1432.6068353924425 160.74821694414288 L 1432.5121831849592 160.89986746399796 L 1432.4141810726398 161.05108252867947 L 1432.3128388556145 161.201847016807 L 1432.20816666802 161.3521458520573 L 1432.1001749769882 161.50196400467217 L 1431.9888745815979 161.65128649296113 L 1431.8742766117962 161.80009838479984 L 1431.7563925272843 161.9483847991231 L 1431.6352341163727 162.09613090741303 L 1431.5108134948014 162.24332193518197 L 1431.3831431045287 162.38994316344974 L 1431.2522357124874 162.53597993021575 L 1431.1181044093078 162.681417631925 L 1430.980762608008 162.82624172492854 L 1430.840224042654 162.9704377269377 L 1430.696502766985 163.1139912184725 L 1430.5496131530092 163.25688784430338 L 1430.399569889565 163.39911331488685 L 1430.2463879808545 163.54065340779437 L 1430.0900827449402 163.6814939691346 L 1429.9306698122157 163.82162091496878 L 1429.7681651238413 163.96102023271908 L 1429.6025849301507 164.09967798256992 L 1429.433945789025 164.23758029886181 L 1429.2622645642382 164.3747133914781 L 1429.0875584237692 164.51106354722378 L 1428.9098448380867 164.64661713119688 L 1428.7291415784011 164.781360588152 L 1428.545466714888 164.91528044385572 L 1428.3588386148804 165.04836330643403 L 1428.169275941033 165.18059586771165 L 1427.976797649455 165.31196490454255 L 1427.7814229878154 165.4424572801326 L 1427.5831714934172 165.57205994535298 L 1427.3820629912452 165.70075994004512 L 1427.1781175919814 165.82854439431682 L 1426.9713556899962 165.95540052982915 L 1426.7617979613074 166.08131566107429 L 1426.549465361513 166.206277196644 L 1426.3343791236966 166.3302726404889 L 1426.116560756302 166.45328959316788 L 1425.8960320409851 166.57531575308826 L 1425.6728150304332 166.6963389177357 L 1425.4469320461615 166.81634698489455 L 1425.2184056762803 166.93532795385815 L 1424.987258773236 167.05326992662873 L 1424.7535144515261 167.1701611091073 L 1424.5171960853886 167.28598981227307 L 1424.2783273064624 167.40074445335216 L 1424.036932001427 167.51441355697617 L 1423.7930343096114 167.62698575632942 L 1423.5466586205816 167.73844979428577 L 1423.2978295717012 167.84879452453436 L 1423.0465720456677 167.95800891269405 L 1422.7929111680246 168.06608203741712 L 1422.5368723046477 168.1730030914811 L 1422.2784810592104 168.2787613828697 L 1422.017763270622 168.3833463358419 L 1421.7547450104437 168.48674749198958 L 1421.4894525802827 168.58895451128328 L 1421.2219125091606 168.68995717310625 L 1420.952151550862 168.78974537727646 L 1420.6801966812575 168.88830914505667 L 1420.4060750956078 168.9856386201522 L 1420.1298142058426 169.08172406969672 L 1419.8514416378212 169.17655588522527 L 1419.570985228568 169.27012458363538 L 1419.2884730234903 169.36242080813514 L 1419.0039332735732 169.45343532917903 L 1418.7173944325546 169.5431590453908 L 1418.4288851540798 169.6315829844736 L 1418.1384342888364 169.7186983041072 L 1417.8460708816688 169.8044962928322 L 1417.5518241686739 169.8889683709213 L 1417.255723574278 169.972106091237 L 1416.9577987082935 170.05390114007662 L 1416.658079362959 170.1343453380034 L 1416.356595509959 170.2134306406646 L 1416.0533772974281 170.29114913959586 L 1415.7484550469344 170.36749306301203 L 1415.4418592504492 170.4424547765844 L 1415.133620567296 170.5160267842041 L 1414.8237698210871 170.58820172873163 L 1414.5123379966383 170.65897239273272 L 1414.1993562368727 170.72833169919997 L 1413.8848558397056 170.79627271226047 L 1413.5688682549144 170.86278863786956 L 1413.2514250809943 170.92787282449012 L 1412.9325580619982 170.9915187637577 L 1412.6122990843626 171.05372009113148 L 1412.2906801737179 171.11447058653044 L 1411.967733491687 171.17376417495578 L 1411.6434913326698 171.23159492709797 L 1411.3179861206113 171.28795705993008 L 1410.9912504057618 171.34284493728572 L 1410.6633168614203 171.39625307042294 L 1410.334218280668 171.44817611857292 L 1410.0039875730888 171.4986088894741 L 1409.6726577614781 171.54754633989143 L 1409.3402619785413 171.59498357612065 L 1409.0068334635794 171.64091585447767 L 1408.672405559166 171.68533858177292 L 1408.3370117078132 171.72824731577072 L 1408.0006854486262 171.76963776563338 L 1407.6634604139508 171.80950579235042 L 1407.3253703260098 171.84784740915242 L 1406.9864489935296 171.88465878190965 L 1406.6467303083616 171.91993622951546 L 1406.306248242091 171.95367622425454 L 1405.9650368426408 171.9858753921555 L 1405.6231302308663 172.0165305133284 L 1405.280562597144 172.04563852228665 L 1404.9373681979516 172.07319650825366 L 1404.5935813524434 172.09920171545372 L 1404.249236439017 172.12365154338784 L 1403.9043678918772 172.1465435470936 L 1403.559010197591 172.16787543738968 L 1403.2131978916402 172.18764508110482 L 1402.8669655549675 172.20585050129117 L 1402.5203478105175 172.22248987742182 L 1402.173379319776 172.2375615455731 L 1401.826094779303 172.25106399859067 L 1401.478528917263 172.26299588624053 L 1401.1307164899529 172.27335601534386 L 1400.7826922783252 172.2821433498964 L 1400.4344910845114 172.28935701117194 L 1400.0861477283404 172.29499627781044 L 1399.7376970438577 172.2990605858899 L 1399.3891738758414 172.30154952898292 L 1399.0406130763176 172.30246285819723 L 1398.692049501076 172.30180048220072 L 1398.3435180061838 172.29956246723037 L 1397.9950534445 172.2957490370859 L 1397.64669066219 172.29036057310708 L 1397.2984644952421 172.28339761413582 L 1396.9504097659828 172.27486085646225 L 1396.6025612795947 172.264751153755 L 1396.254953820637 172.25306951697593 L 1395.9076221495654 172.23981711427896 L 1395.5606009992582 172.22499527089332 L 1395.2139250715406 172.20860546899104 L 1394.8676290337169 172.1906493475386 L 1394.521747515102 172.1711287021332 L 1394.17631510356 172.15004548482312 L 1393.8313663420436 172.1274018039125 L 1393.486935725142 172.1031999237506 L 1393.1430576956295 172.07744226450524 L 1392.7997666410229 172.05013140192088 L 1392.457096890141 172.021270067061 L 1392.1150827096737 171.9908611460351 L 1391.7737583007543 171.95890767970988 L 1391.4331577955386 171.92541286340537 L 1391.093315253794 171.8903800465753 L 1390.7542646594907 171.85381273247214 L 1390.4160399174064 171.8157145777968 L 1390.0786748497328 171.77608939233306 L 1389.7422031926958 171.7349411385664 L 1389.4066585931807 171.69227393128793 L 1389.072074605368 171.64809203718283 L 1388.7384846873774 171.60239987440366 L 1388.4059221979228 171.55520201212863 L 1388.074420392976 171.50650317010468 L 1387.744012422441 171.45630821817537 L 1387.4147313268402 171.4046221757941 L 1387.0866100340081 171.35145021152198 L 1386.759681355801 171.29679764251122 L 1386.4339779848137 171.2406699339731 L 1386.1095324911125 171.18307269863175 L 1385.786377318976 171.12401169616268 L 1385.4645447836526 171.06349283261693 L 1385.144067068127 171.00152215983042 L 1384.824976219904 170.9381058748188 L 1384.5073041478026 170.87325031915768 L 1384.1910826187652 170.80696197834862 L 1383.8763432546812 170.73924748117048 L 1383.5631175292244 170.67011359901647 L 1383.251436764707 170.5995672452173 L 1382.941332128945 170.52761547434946 L 1382.6328346321443 170.45426548153014 L 1382.3259751237968 170.37952460169748 L 1382.020784289598 170.3034003088772 L 1381.717292648377 170.2259002154351 L 1381.415530549045 170.14703207131598 L 1381.1155281675601 170.0668037632685 L 1380.8173155039108 169.9852233140566 L 1380.520922379115 169.9022988816573 L 1380.226378432238 169.81803875844463 L 1379.9337131174293 169.73245137036076 L 1379.6429557009762 169.64554527607316 L 1379.3541352583782 169.55732916611882 L 1379.0672806714388 169.46781186203526 L 1378.7824206253777 169.37700231547825 L 1378.4995836059622 169.2849096073268 L 1378.2187978966583 169.19154294677494 L 1377.940091575803 169.09691167041098 L 1377.6634925137967 169.00102524128366 L 1377.3890283703142 168.903893247956 L 1377.1167265915417 168.80552540354637 L 1376.84661440743 168.70593154475728 L 1376.5787188289723 168.60512163089157 L 1376.3130666455036 168.50310574285663 L 1376.0496844220204 168.39989408215627 L 1375.788598496526 168.29549696987053 L 1375.529834977395 168.18992484562364 L 1375.2734197407638 168.08318826654008 L 1375.0193784279425 167.97529790618876 L 1374.7677364428505 167.86626455351586 L 1374.5185189494769 167.75609911176574 L 1374.271750869363 167.6448125973908 L 1374.0274568791112 167.53241613894974 L 1373.7856614079174 167.41892097599472 L 1373.5463886351267 167.30433845794747 L 1373.3096624878171 167.1886800429643 L 1373.0755066384063 167.07195729679037 L 1372.8439445022839 166.95418189160296 L 1372.6149992354708 166.8353656048445 L 1372.3886937323025 166.7155203180446 L 1372.1650506231408 166.59465801563212 L 1371.9440922721108 166.47279078373654 L 1371.7258407748627 166.34993080897954 L 1371.5103179563648 166.22609037725618 L 1371.2975453687193 166.10128187250643 L 1371.0875442890074 165.97551777547676 L 1370.8803357171626 165.8488106624721 L 1370.6759403738688 165.72117320409814 L 1370.4743786984905 165.59261816399433 L 1370.2756708470267 165.4631583975576 L 1370.0798366900976 165.33280685065668 L 1369.8868958109554 165.20157655833762 L 1369.6968675035273 165.06948064352034 L 1369.5097707704854 164.93653231568618 L 1369.3256243213475 164.80274486955722 L 1369.1444465706047 164.6681316837665 L 1368.9662556358815 164.53270621952043 L 1368.7910693361225 164.39648201925266 L 1368.6189051898118 164.25947270526962 L 1368.4497804132209 164.12169197838853 L 1368.2837119186859 163.9831536165673 L 1368.1207163129184 163.84387147352666 L 1367.9608098953427 163.70385947736486 L 1367.8040086564677 163.5631316291648 L 1367.6503282762862 163.421702001594 L 1367.4997841227087 163.27958473749746 L 1367.3523912500248 163.13679404848307 L 1367.2081643973988 162.9933442135008 L 1367.067117987396 162.84924957741455 L 1366.92926612454 162.7045245495679 L 1366.7946225939015 162.559183602343 L 1366.6632008597223 162.41324126971347 L 1366.5350140640658 162.26671214579096 L 1366.4100750255045 162.11961088336574 L 1366.2883962378387 161.97195219244148 L 1366.1699898688455 161.8237508387642 L 1366.0548677590632 161.6750216423458 L 1365.9430414206065 161.52577947598195 L 1365.8345220360166 161.37603926376494 L 1365.7293204571413 161.22581597959123 L 1365.6274472040507 161.075124645664 L 1365.5289124639853 160.9239803309911 L 1365.433726090337 160.77239814987803 L 1365.3418976016637 160.6203932604166 L 1365.253436180738 160.46798086296906 L 1365.168350673628 160.31517619864815 L 1365.086649588814 160.161994547793 L 1365.008341096336 160.008451228441 L 1364.9334330269778 159.85456159479617 L 1364.8619328714844 159.7003410356936 L 1364.7938477798114 159.54580497306074 L 1364.7291845604113 159.39096886037498 L 1364.6679496795523 159.23584818111866 L 1364.6101492606715 159.08045844723037 L 1364.5557890837624 158.924815197554 L 1364.5048745847973 158.7689339962849 L 1364.4574108551842 158.61283043141322 L 1364.413402641256 158.45652011316537 L 1364.3728543437976 158.30001867244292 L 1364.3357700176048 158.14334175925956 L 1364.3021533710796 157.986505041176 L 1364.2720077658585 157.82952420173336 L 1364.2453362164767 157.6724149388848 L 1364.2221413900672 157.51519296342565 L 1364.2024256060934 157.35787399742244 L 1364.1861908361168 157.2004737726407 L 1364.1734387036013 157.04300802897168 L 1364.1641704837493 156.8854925128586 L 1364.1583871033754 156.72794297572176 L 1364.1560891408124 156.5703751723836 L 1364.1572768258548 156.41280485949315 L 1364.1619500397348 156.2552477939504 L 1364.1701083151356 156.09771973133056 L 1364.1817508362358 155.94023642430867 L 1364.1968764387934 155.78281362108416 L 1364.2154836102604 155.62546706380618 L 1364.2375704899355 155.46821248699936 L 1364.263134869149 155.31106561599034 L 1364.2921741914843 155.1540421653352 L 1364.324685553033 154.99715783724824 L 1364.3606657026867 154.84042832003146 L 1364.4001110424601 154.683869286506 L 1364.443017627852 154.52749639244476 L 1364.4893811682398 154.37132527500682 L 1364.5391970273079 154.21537155117377 L 1364.5924602235118 154.05965081618808 L 1364.6491654305767 153.90417864199344 L 1364.709306978029 153.7489705756777 L 1364.7728788517638 153.5940421379182 L 1364.839874694647 153.43940882142957 L 1364.9102878071499 153.28508608941462 L 1364.9841111480202 153.13108937401793 L 1365.0613373349852 152.97743407478274 L 1365.1419586454906 152.82413555711088 L 1365.2259670174724 152.6712091507264 L 1365.3133540501633 152.51867014814252 L 1365.4041110049334 152.3665338031323 L 1365.4982288061622 152.2148153292036 L 1365.5956980421486 152.06352989807726 L 1365.6965089660496 151.91269263817037 L 1365.8006514968574 151.7623186330832 L 1365.9081152204053 151.61242292009098 L 1366.0188893904108 151.46302048864007 L 1366.132962929549 151.31412627884913 L 1366.2503244305612 151.16575518001505 L 1366.3709621573948 151.0179220291241 L 1366.494864046378 150.87064160936814 L 1366.6220177074251 150.7239286486664 L 1366.752410425276 150.57779781819275 L 1366.886029160767 150.4322637309084 L 1367.0228605521365 150.28734094010085 L 1367.1628909163594 150.14304393792838 L 1367.3061062505158 149.99938715397096 L 1367.4524922331914 149.85638495378728 L 1367.6020342259103 149.7140516374782 L 1367.7547172745979 149.57240143825672 L 1367.910526111076 149.43144852102475 L 1368.0694451545914 149.2912069809565 L 1368.2314585133718 149.15169084208918 L 1368.3965499862165 149.01291405592036 L 1368.5647030641157 148.87489050001304 L 1368.735900931902 148.73763397660778 L 1368.910126469931 148.60115821124253 L 1369.0873622557942 148.4654768513801 L 1369.2675905660606 148.33060346504342 L 1369.4507933780494 148.19655153945874 L 1369.6369523716323 148.06333447970687 L 1369.8260489310646 147.9309656073828 L 1370.0180641468485 147.79945815926348 L 1370.2129788176221 147.66882528598407 L 1370.4107734520808 147.5390800507231 L 1370.611428270926 147.4102354278959 L 1370.8149232088429 147.2823043018575 L 1371.0212379165075 147.15529946561378 L 1371.2303517626208 147.02923361954257 L 1371.4422438359725 146.90411937012342 L 1371.656892947532 146.77996922867703 L 1371.8742776325669 146.65679561011405 L 1372.0943761527897 146.53461083169373 L 1372.3171664985318 146.4134271117921 L 1372.5426263909446 146.29325656868008 L 1372.7707332842265 146.17411121931192 L 1373.0014643678783 146.05600297812327 L 1373.2347965689837 145.93894365583978 L 1373.4707065545176 145.82294495829618 L 1373.7091707336774 145.7080184852655 L 1373.9501652602444 145.5941757292993 L 1374.1936660349666 145.48142807457833 L 1374.4396487079691 145.3697867957741 L 1374.68808868119 145.2592630569214 L 1374.938961110839 145.1498679103021 L 1375.192240909882 145.04161229533963 L 1375.4479027505504 144.9345070375053 L 1375.7059210668729 144.82856284723567 L 1375.966270057233 144.7237903188614 L 1376.2289236869487 144.6201999295481 L 1376.493855690876 144.51780203824833 L 1376.7610395760348 144.4166068846659 L 1377.0304486242599 144.31662458823183 L 1377.3020558948704 144.21786514709248 L 1377.575834227366 144.1203384371096 L 1377.8517562441411 144.024054210873 L 1378.1297943532247 143.929022096725 L 1378.409920751037 143.83525159779785 L 1378.6921074251718 143.7427520910633 L 1378.9763261571968 143.6515328263949 L 1379.262548525476 143.56160292564317 L 1379.5507459080104 143.47297138172323 L 1379.8408894853026 143.38564705771557 L 1380.1329502432363 143.29963868597986 L 1380.4268989759792 143.21495486728156 L 1380.7227062889028 143.131604069932 L 1381.0203426015228 143.04959462894146 L 1381.3197781504552 142.9689347451857 L 1381.6209829923953 142.88963248458583 L 1381.9239270071096 142.8116957773019 L 1382.2285799004492 142.73513241693965 L 1382.5349112073786 142.65995005977132 L 1382.8428902950225 142.58615622396997 L 1383.1524863657285 142.51375828885767 L 1383.4636684601476 142.44276349416765 L 1383.77640546033 142.37317893932016 L 1384.0906660928358 142.30501158271272 L 1384.406418931864 142.23826824102423 L 1384.7236324023936 142.17295558853317 L 1385.042274783342 142.10908015645037 L 1385.362314210737 142.04664833226585 L 1385.6837186809018 141.98566635910998 L 1386.0064560536578 141.92614033512928 L 1386.3304940555365 141.86807621287647 L 1386.6558002830077 141.81147979871548 L 1386.9823422057198 141.75635675224052 L 1387.3100871697525 141.7027125857103 L 1387.6390024008826 141.65055266349677 L 1387.9690550078612 141.5998822015487 L 1388.3002119857028 141.55070626687004 L 1388.632440218985 141.5030297770133 L 1388.965706485162 141.4568574995877 L 1389.2999774578843 141.41219405178254 L 1389.6352197103336 141.36904389990536 L 1389.9713997185638 141.3274113589354 L 1390.3084838648545 141.28730059209207 L 1390.6464384410715 141.24871561041863 L 1390.9852296520394 141.21166027238107 L 1391.3248236189188 141.17613828348232 L 1391.6651863825966 141.1421531958917 L 1392.0062839070797 141.1097084080896 L 1392.3480820829 141.0788071645278 L 1392.6905467305246 141.0494525553049 L 1393.0336436037744 141.02164751585735 L 1393.3773383932478 140.99539482666592 L 1393.7215967297523 140.97069711297766 L 1394.066384187741 140.94755684454339 L 1394.411666288756 140.9259763353706 L 1394.757408504874 140.90595774349225 L 1395.1035762621623 140.88750307075088 L 1395.4501349441332 140.87061416259837 L 1395.7970498952077 140.85529270791142 L 1396.1442864241794 140.8415402388228 L 1396.4918098076848 140.8293581305679 L 1396.8395852936753 140.8187476013474 L 1397.187578104892 140.80970971220543 L 1397.535753442344 140.80224536692333 L 1397.8840764887875 140.7963553119294 L 1398.2325124122083 140.79204013622427 L 1398.581026369304 140.78930027132188 L 1398.9295835089697 140.78813599120645 L 1399.278148975782 140.788547412305 L 1399.6266879134841 140.7905344934758 L 1399.9751654684735 140.79409703601237 L 1400.3235467932843 140.79923468366343 L 1400.671797050075 140.8059469226685 L 1401.0198814141095 140.81423308180928 L 1401.367765077242 140.8240923324767 L 1401.7154132513958 140.835523688754 L 1402.0627911720435 140.848526007515 L 1402.409864101682 140.86309798853873 L 1402.756597333308 140.87923817463917 L 1403.102956193887 140.8969449518112 L 1403.4489060478218 140.91621654939183 L 1403.7944123004152 140.9370510402374 L 1404.13944040133 140.95944634091614 L 1404.4839558480433 140.98340021191666 L 1404.8279241892976 141.00891025787186 L 1405.1713110285457 141.03597392779835 L 1405.5140820273898 141.06458851535172 L 1405.8562029090153 141.09475115909703 L 1406.1976394616195 141.12645884279507 L 1406.5383575418314 141.15970839570392 L 1406.878323078127 141.19449649289592 L 1407.2175020742363 141.2308196555904 L 1407.555860612542 141.26867425150135 L 1407.8933648574719 141.30805649520073 L 1408.2299810588834 141.34896244849696 L 1408.5656755554367 141.3913880208288 L 1408.9004147779617 141.4353289696744 L 1409.234165252815 141.4807809009755 L 1409.5668936052277 141.52773926957678 L 1409.8985665626415 141.5761993796806 L 1410.229150958037 141.62615638531628 L 1410.5586137332505 141.67760529082489 L 1410.8869219422786 141.73054095135876 L 1411.2140427545744 141.78495807339596 L 1411.539943458329 141.8408512152696 L 1411.8645914637434 141.8982147877121 L 1412.187954306288 141.95704305441404 L 1412.509999649948 142.01733013259772 L 1412.830695290457 142.0790699936056 L 1413.1500091585187 142.142256463503 L 1413.4679093230122 142.2068832236956 L 1413.7843639941857 142.27294381156125 L 1414.0993415268363 142.3404316210962 L 1414.4128104234728 142.40933990357573 L 1414.7247393374669 142.47966176822902 L 1415.035097076187 142.5513901829282 L 1415.3438526041182 142.6245179748916 L 1415.6509750459645 142.69903783140094 L 1415.9564336897383 142.77494230053267 L 1416.260197989829 142.85222379190313 L 1416.5622375700605 142.9308745774276 L 1416.862522226726 143.01088679209306 L 1417.1610219316103 143.0922524347447 L 1417.4577068349915 143.1749633688861 L 1417.7525472686264 143.25901132349273 L 1418.0455137487177 143.34438789383918 L 1418.336576978861 143.4310845423396 L 1418.6257078529763 143.51909259940132 L 1418.9128774582173 143.60840326429204 L 1419.1980570778621 143.69900760601965 L 1419.4812181941868 143.79089656422548 L 1419.7623324913156 143.88406095009034 L 1420.0413718580533 143.97849144725322 L 1420.3183083906956 144.0741786127431 L 1420.5931143958198 144.17111287792324 L 1420.8657623930549 144.2692845494478 L 1421.136225117828 144.3686838102315 L 1421.4044755240918 144.46930072043105 L 1421.6704867870296 144.57112521843933 L 1421.934232305737 144.67414712189137 L 1422.1956857058813 144.77835612868267 L 1422.4548208423407 144.8837418179994 L 1422.7116118018175 144.99029365136045 L 1422.9660329054298 145.09800097367125 L 1423.218058711279 145.20685301428935 L 1423.4676640169946 145.31683888810142 L 1423.7148238622544 145.42794759661166 L 1423.9595135312793 145.5401680290419 L 1424.2017085553068 145.65348896344236 L 1424.441384715036 145.76789906781403 L 1424.6785180430509 145.88338690124183 L 1424.913084826216 145.99994091503865 L 1425.1450616080485 146.11754945390027 L 1425.374425191064 146.23620075707075 L 1425.6011526390946 146.3558829595187 L 1425.825221279585 146.4765840931236 L 1426.0466087058578 146.59829208787266 L 1426.2652927793547 146.72099477306784 L 1426.4812516318505 146.84467987854285 L 1426.69446366764 146.96933503589023 L 1426.9049075656976 147.09494777969815 L 1427.1125622818086 147.22150554879684 L 1427.3174070506743 147.34899568751493 L 1427.5194213879888 147.47740544694474 L 1427.7185850924866 147.60672198621737 L 1427.914878247963 147.7369323737866 L 1428.1082812252664 147.86802358872222 L 1428.29877468426 147.999982522012 L 1428.4863395757568 148.13279597787255 L 1428.6709571434237 148.26645067506894 L 1428.8526089256582 148.40093324824286 L 1429.031276757433 148.53623024924906 L 1429.206942772114 148.67232814850018 L 1429.3795894032462 148.80921333631971 L 1429.5491993863102 148.94687212430293 L 1429.7157557604492 149.08529074668579 L 1429.8792418701646 149.22445536172134 L 1430.0396413669814 149.3643520530641 L 1430.196938211084 149.50496683116148 L 1430.3511166729186 149.64628563465288 L 1430.5021613347678 149.78829433177572 L 1430.6500570922913 149.9309787217786 L 1430.7947891560364 150.0743245363414 L 1430.9363430529174 150.21831744100217 L 1431.0747046276626 150.36294303659042 L 1431.20986004423 150.50818686066714 L 1431.3417957871902 150.6540343889709 L 1431.4704986630793 150.80047103687045 L 1431.5959558017166 150.947482160823 L 1431.718154657493 151.0950530598387 L 1431.8370830106246 151.2431689769506 L 1431.9527289683751 151.39181510069042 L 1432.0650809662454 151.54097656656967 L 1432.1741277691292 151.69063845856604 L 1432.2798584724371 151.8407858106151 L 1432.382262503187 151.99140360810668 L 1432.4813296210607 152.14247678938662 L 1432.5770499194296 152.29399024726268 L 1432.669413826343 152.4459288305153 L 1432.7584121054877 152.59827734541278 L 1432.8440358571097 152.7510205572306 L 1432.926276518905 152.90414319177484 L 1433.0051258668766 153.05762993690965 L 1433.0805760161547 153.21146544408845 L 1433.1526194217877 153.3656343298887 L 1433.2212488794949 153.52012117755032 L 1433.2864575263875 153.67491053851722 L 1433.3482388416555 153.82998693398235 L 1433.406586647219 153.9853348564354 L 1433.4614951083456 154.1409387712135 L 1433.512958734235 154.29678311805495 L 1433.560972378568 154.45285231265487 L 1433.6055312400197 154.60913074822386 L 1433.6466308627412 154.76560279704862 L 1433.6842671368045 154.92225281205464 L 1433.7184362986136 155.07906512837096 L 1433.7491349312807 155.23602406489664 L 1433.7763599649682 155.39311392586882 L 1433.8001086771953 155.5503190024323 L 1433.8203786931108 155.70762357421043 L 1433.8371679857296 155.86501191087714 L 1433.8504748761368 156.02246827372988 L 1433.8602980336545 156.17997691726364 L 1433.8666364759747 156.33752209074527 L 1433.8694895692588 156.4950880397887 M 1433.8696664008792 206.68178803030003 L 1433.8679235748662 206.8393572882551 L 1433.8626952711081 206.99691078941567 L 1433.853982012431 207.15443277856292 L 1433.8417846701536 207.31190750362924 L 1433.8261044639999 207.4693192172733 L 1433.8069429619773 207.62665217845495 L 1433.7843020802202 207.78389065400916 L 1433.758184082798 207.94101892021942 L 1433.7285915814882 208.09802126439004 L 1433.695527535517 208.25488198641747 L 1433.6589952512609 208.41158540036017 L 1433.6189983819181 208.56811583600737 L 1433.5755409271421 208.7244576404459 L 1433.5286272326423 208.88059517962566 L 1433.478261989749 209.03651283992284 L 1433.4244502349445 209.19219502970128 L 1433.3671973493592 209.3476261808718 L 1433.3065090582345 209.50279075044878 L 1433.2423914303483 209.6576732221046 L 1433.1748508774103 209.8122581077211 L 1433.1038941534198 209.9665299489386 L 1433.0295283539895 210.1204733187015 L 1432.9517609156376 210.27407282280112 L 1432.8705996150431 210.42731310141505 L 1432.7860525682688 210.58017883064312 L 1432.6981282299482 210.73265472403983 L 1432.6068353924425 210.88472553414286 L 1432.5121831849592 211.03637605399794 L 1432.4141810726398 211.18759111867945 L 1432.3128388556145 211.33835560680697 L 1432.20816666802 211.48865444205728 L 1432.1001749769882 211.63847259467215 L 1431.9888745815979 211.7877950829611 L 1431.8742766117962 211.93660697479982 L 1431.7563925272843 212.08489338912307 L 1431.6352341163727 212.232639497413 L 1431.5108134948014 212.37983052518194 L 1431.3831431045287 212.52645175344972 L 1431.2522357124874 212.67248852021572 L 1431.1181044093078 212.81792622192498 L 1430.980762608008 212.9627503149285 L 1430.840224042654 213.1069463169377 L 1430.696502766985 213.25049980847248 L 1430.5496131530092 213.39339643430336 L 1430.399569889565 213.53562190488682 L 1430.2463879808545 213.67716199779434 L 1430.0900827449402 213.81800255913458 L 1429.9306698122157 213.95812950496875 L 1429.7681651238413 214.09752882271906 L 1429.6025849301507 214.2361865725699 L 1429.433945789025 214.3740888888618 L 1429.2622645642382 214.5112219814781 L 1429.0875584237692 214.64757213722376 L 1428.9098448380867 214.78312572119685 L 1428.7291415784011 214.917869178152 L 1428.545466714888 215.0517890338557 L 1428.3588386148804 215.184871896434 L 1428.169275941033 215.31710445771162 L 1427.976797649455 215.44847349454253 L 1427.7814229878154 215.57896587013258 L 1427.5831714934172 215.70856853535295 L 1427.3820629912452 215.8372685300451 L 1427.1781175919814 215.9650529843168 L 1426.9713556899962 216.09190911982913 L 1426.7617979613074 216.21782425107426 L 1426.549465361513 216.342785786644 L 1426.3343791236966 216.46678123048886 L 1426.116560756302 216.58979818316786 L 1425.8960320409851 216.71182434308824 L 1425.6728150304332 216.83284750773566 L 1425.4469320461615 216.95285557489453 L 1425.2184056762803 217.07183654385813 L 1424.987258773236 217.1897785166287 L 1424.7535144515261 217.3066696991073 L 1424.5171960853886 217.42249840227305 L 1424.2783273064624 217.53725304335214 L 1424.036932001427 217.65092214697614 L 1423.7930343096114 217.7634943463294 L 1423.5466586205816 217.87495838428575 L 1423.2978295717012 217.98530311453433 L 1423.0465720456677 218.09451750269403 L 1422.7929111680246 218.2025906274171 L 1422.5368723046477 218.30951168148107 L 1422.2784810592104 218.41526997286968 L 1422.017763270622 218.51985492584188 L 1421.7547450104437 218.62325608198955 L 1421.4894525802827 218.72546310128325 L 1421.2219125091606 218.82646576310623 L 1420.952151550862 218.92625396727644 L 1420.6801966812575 219.02481773505664 L 1420.4060750956078 219.1221472101522 L 1420.1298142058426 219.2182326596967 L 1419.8514416378212 219.31306447522525 L 1419.570985228568 219.40663317363536 L 1419.2884730234903 219.49892939813512 L 1419.0039332735732 219.589943919179 L 1418.7173944325546 219.67966763539079 L 1418.4288851540798 219.76809157447357 L 1418.1384342888364 219.85520689410717 L 1417.8460708816688 219.9410048828322 L 1417.5518241686739 220.02547696092128 L 1417.255723574278 220.108614681237 L 1416.9577987082935 220.1904097300766 L 1416.658079362959 220.2708539280034 L 1416.356595509959 220.34993923066457 L 1416.0533772974281 220.42765772959584 L 1415.7484550469344 220.504001653012 L 1415.4418592504492 220.5789633665844 L 1415.133620567296 220.65253537420406 L 1414.8237698210871 220.7247103187316 L 1414.5123379966383 220.7954809827327 L 1414.1993562368727 220.86484028919995 L 1413.8848558397056 220.93278130226045 L 1413.5688682549144 220.99929722786953 L 1413.2514250809943 221.0643814144901 L 1412.9325580619982 221.12802735375772 L 1412.6122990843626 221.19022868113143 L 1412.2906801737179 221.25097917653042 L 1411.967733491687 221.31027276495576 L 1411.6434913326698 221.36810351709795 L 1411.3179861206113 221.42446564993006 L 1410.9912504057618 221.4793535272857 L 1410.6633168614203 221.53276166042292 L 1410.334218280668 221.5846847085729 L 1410.0039875730888 221.63511747947408 L 1409.6726577614781 221.6840549298914 L 1409.3402619785413 221.73149216612063 L 1409.0068334635794 221.77742444447765 L 1408.672405559166 221.8218471717729 L 1408.3370117078132 221.8647559057707 L 1408.0006854486262 221.90614635563335 L 1407.6634604139508 221.9460143823504 L 1407.3253703260098 221.9843559991524 L 1406.9864489935296 222.02116737190963 L 1406.6467303083616 222.05644481951543 L 1406.306248242091 222.0901848142545 L 1405.9650368426408 222.12238398215547 L 1405.6231302308663 222.15303910332838 L 1405.280562597144 222.18214711228663 L 1404.9373681979516 222.20970509825364 L 1404.5935813524434 222.2357103054537 L 1404.249236439017 222.2601601333878 L 1403.9043678918772 222.28305213709356 L 1403.559010197591 222.30438402738966 L 1403.2131978916402 222.3241536711048 L 1402.8669655549675 222.34235909129114 L 1402.5203478105175 222.3589984674218 L 1402.173379319776 222.37407013557308 L 1401.826094779303 222.38757258859064 L 1401.478528917263 222.3995044762405 L 1401.1307164899529 222.40986460534384 L 1400.7826922783252 222.41865193989636 L 1400.4344910845114 222.42586560117192 L 1400.0861477283404 222.43150486781042 L 1399.7376970438577 222.43556917588987 L 1399.3891738758414 222.4380581189829 L 1399.0406130763176 222.4389714481972 L 1398.692049501076 222.4383090722007 L 1398.3435180061838 222.43607105723035 L 1397.9950534445 222.43225762708587 L 1397.64669066219 222.42686916310706 L 1397.2984644952421 222.4199062041358 L 1396.9504097659828 222.41136944646223 L 1396.6025612795947 222.40125974375496 L 1396.254953820637 222.3895781069759 L 1395.9076221495654 222.37632570427894 L 1395.5606009992582 222.36150386089332 L 1395.2139250715406 222.34511405899102 L 1394.8676290337169 222.32715793753857 L 1394.521747515102 222.30763729213317 L 1394.17631510356 222.28655407482307 L 1393.8313663420436 222.26391039391248 L 1393.486935725142 222.23970851375057 L 1393.1430576956295 222.2139508545052 L 1392.7997666410229 222.18663999192086 L 1392.457096890141 222.157778657061 L 1392.1150827096737 222.12736973603506 L 1391.7737583007543 222.09541626970986 L 1391.4331577955386 222.06192145340535 L 1391.093315253794 222.02688863657528 L 1390.7542646594907 221.99032132247208 L 1390.4160399174064 221.95222316779677 L 1390.0786748497328 221.91259798233304 L 1389.7422031926958 221.87144972856638 L 1389.4066585931807 221.8287825212879 L 1389.072074605368 221.7846006271828 L 1388.7384846873774 221.73890846440364 L 1388.4059221979228 221.6917106021286 L 1388.074420392976 221.64301176010463 L 1387.744012422441 221.59281680817534 L 1387.4147313268402 221.54113076579404 L 1387.0866100340081 221.48795880152196 L 1386.759681355801 221.4333062325112 L 1386.4339779848137 221.37717852397307 L 1386.1095324911125 221.31958128863172 L 1385.786377318976 221.26052028616266 L 1385.4645447836526 221.2000014226169 L 1385.144067068127 221.1380307498304 L 1384.824976219904 221.07461446481878 L 1384.5073041478026 221.00975890915765 L 1384.1910826187652 220.9434705683486 L 1383.8763432546812 220.87575607117046 L 1383.5631175292244 220.80662218901648 L 1383.251436764707 220.73607583521726 L 1382.941332128945 220.66412406434944 L 1382.6328346321443 220.59077407153012 L 1382.3259751237968 220.51603319169746 L 1382.020784289598 220.43990889887718 L 1381.717292648377 220.36240880543508 L 1381.415530549045 220.28354066131595 L 1381.1155281675601 220.20331235326847 L 1380.8173155039108 220.1217319040566 L 1380.520922379115 220.03880747165726 L 1380.226378432238 219.9545473484446 L 1379.9337131174293 219.86895996036074 L 1379.6429557009762 219.78205386607314 L 1379.3541352583782 219.6938377561188 L 1379.0672806714388 219.60432045203524 L 1378.7824206253777 219.51351090547823 L 1378.4995836059622 219.42141819732677 L 1378.2187978966583 219.32805153677492 L 1377.940091575803 219.23342026041095 L 1377.6634925137967 219.13753383128363 L 1377.3890283703142 219.04040183795598 L 1377.1167265915417 218.94203399354637 L 1376.84661440743 218.84244013475725 L 1376.5787188289723 218.74163022089155 L 1376.3130666455036 218.6396143328566 L 1376.0496844220204 218.53640267215624 L 1375.788598496526 218.4320055598705 L 1375.529834977395 218.32643343562364 L 1375.2734197407638 218.21969685654005 L 1375.0193784279425 218.11180649618873 L 1374.7677364428505 218.00277314351584 L 1374.5185189494769 217.8926077017657 L 1374.271750869363 217.78132118739077 L 1374.0274568791112 217.66892472894972 L 1373.7856614079174 217.5554295659947 L 1373.5463886351267 217.44084704794744 L 1373.3096624878171 217.32518863296428 L 1373.0755066384063 217.20846588679035 L 1372.8439445022839 217.09069048160293 L 1372.6149992354708 216.97187419484447 L 1372.3886937323025 216.8520289080446 L 1372.1650506231408 216.7311666056321 L 1371.9440922721108 216.60929937373652 L 1371.7258407748627 216.4864393989795 L 1371.5103179563648 216.36259896725613 L 1371.2975453687193 216.2377904625064 L 1371.0875442890074 216.11202636547674 L 1370.8803357171626 215.98531925247207 L 1370.6759403738688 215.8576817940981 L 1370.4743786984905 215.7291267539943 L 1370.2756708470267 215.59966698755758 L 1370.0798366900976 215.46931544065666 L 1369.8868958109554 215.3380851483376 L 1369.6968675035273 215.2059892335203 L 1369.5097707704854 215.07304090568616 L 1369.3256243213475 214.9392534595572 L 1369.1444465706047 214.80464027376647 L 1368.9662556358815 214.6692148095204 L 1368.7910693361225 214.53299060925264 L 1368.6189051898118 214.3959812952696 L 1368.4497804132209 214.2582005683885 L 1368.2837119186859 214.11966220656728 L 1368.1207163129184 213.98038006352664 L 1367.9608098953427 213.84036806736484 L 1367.8040086564677 213.69964021916476 L 1367.6503282762862 213.558210591594 L 1367.4997841227087 213.41609332749744 L 1367.3523912500248 213.27330263848305 L 1367.2081643973988 213.12985280350077 L 1367.067117987396 212.98575816741453 L 1366.92926612454 212.84103313956788 L 1366.7946225939015 212.695692192343 L 1366.6632008597223 212.54974985971347 L 1366.5350140640658 212.40322073579094 L 1366.4100750255045 212.25611947336571 L 1366.2883962378387 212.10846078244145 L 1366.1699898688455 211.96025942876418 L 1366.0548677590632 211.81153023234577 L 1365.9430414206065 211.66228806598193 L 1365.8345220360166 211.51254785376494 L 1365.7293204571413 211.3623245695912 L 1365.6274472040507 211.21163323566398 L 1365.5289124639853 211.06048892099108 L 1365.433726090337 210.908906739878 L 1365.3418976016637 210.75690185041657 L 1365.253436180738 210.60448945296903 L 1365.168350673628 210.45168478864812 L 1365.086649588814 210.29850313779298 L 1365.008341096336 210.14495981844098 L 1364.9334330269778 209.99107018479614 L 1364.8619328714844 209.8368496256936 L 1364.7938477798114 209.68231356306072 L 1364.7291845604113 209.52747745037496 L 1364.6679496795523 209.37235677111863 L 1364.6101492606715 209.21696703723035 L 1364.5557890837624 209.061323787554 L 1364.5048745847973 208.90544258628486 L 1364.4574108551842 208.74933902141316 L 1364.413402641256 208.59302870316534 L 1364.3728543437976 208.4365272624429 L 1364.3357700176048 208.27985034925953 L 1364.3021533710796 208.12301363117598 L 1364.2720077658585 207.96603279173334 L 1364.2453362164767 207.80892352888478 L 1364.2221413900672 207.65170155342562 L 1364.2024256060934 207.49438258742242 L 1364.1861908361168 207.33698236264067 L 1364.1734387036013 207.17951661897166 L 1364.1641704837493 207.02200110285858 L 1364.1583871033754 206.86445156572174 L 1364.1560891408124 206.70688376238357" stroke-miterlimit="10" stroke-width="4.058669743" stroke-dasharray=""/></g><g><g/><text fill="black" stroke="none" font-family="sans-serif" font-size="11pt" font-style="normal" font-weight="normal" text-decoration="normal" x="1367.3128549039398" y="248.05634488100003" text-anchor="start" dominant-baseline="alphabetic" xml:space="preserve">Datastore</text></g></g><g><path fill="white" stroke="black" paint-order="fill stroke markers" d=" M 829.6957828912248 610.9491689609999 L 853.5703107912248 610.9491689609999 L 853.5703107912248 992.9416153610001 L 829.6957828912248 992.9416153610001 L 829.6957828912248 610.9491689609999" stroke-miterlimit="10" stroke-width="1.9895439916666666" stroke-dasharray=""/><path fill="white" stroke="black" paint-order="fill stroke markers" d=" M 1262.968990434132 701.672374981 L 1286.8435183341319 701.672374981 L 1286.8435183341319 926.0929372410001 L 1262.968990434132 926.0929372410001 L 1262.968990434132 701.672374981" stroke-miterlimit="10" stroke-width="1.9895439916666666" stroke-dasharray=""/><path fill="white" stroke="black" paint-order="fill stroke markers" d=" M 1387.0755917168792 768.521053101 L 1410.9501196168792 768.521053101 L 1410.9501196168792 835.369731221 L 1387.0755917168792 835.369731221 L 1387.0755917168792 768.521053101" stroke-miterlimit="10" stroke-width="1.9895439916666666" stroke-dasharray=""/><g><g/><g/><path fill="none" stroke="black" paint-order="fill stroke markers" d=" M 11.93726395 11.93726395 L 1556.5847398068793 11.93726395 L 1556.5847398068793 1169.613121821 L 11.93726395 1169.613121821 L 11.93726395 11.93726395 Z" stroke-miterlimit="10" stroke-width="1.9895439916666666" stroke-dasharray=""/><path fill="white" stroke="black" paint-order="fill stroke markers" d=" M 11.93726395 11.93726395 L 11.93726395 45.36160301 L 473.5529903585205 45.36160301 L 490.2651598885205 28.64943348 L 490.2651598885205 11.93726395 L 11.93726395 11.93726395" stroke-miterlimit="10" stroke-width="1.9895439916666666" stroke-dasharray=""/><text fill="black" stroke="none" font-family="sans-serif" font-size="11pt" font-style="normal" font-weight="bold" text-decoration="normal" x="35.81179185" y="34.61806545500001" text-anchor="start" dominant-baseline="alphabetic" xml:space="preserve">sd</text><text fill="black" stroke="none" font-family="sans-serif" font-size="11pt" font-style="normal" font-weight="normal" text-decoration="normal" x="56.94512505617676" y="34.61806545500001" text-anchor="start" dominant-baseline="alphabetic" xml:space="preserve">Interaction between beacons, iOS mobile app and the server</text></g><g><text fill="black" stroke="none" font-family="sans-serif" font-size="11pt" font-style="normal" font-weight="normal" text-decoration="normal" x="873.4657507078914" y="324.45483416099995" text-anchor="start" dominant-baseline="alphabetic" xml:space="preserve">startScanning(Beacon_UUID)</text></g><g><path fill="none" stroke="black" paint-order="fill stroke markers" d=" M 841.6330468412248 334.00464532099994 L 937.1311584412248 334.00464532099994 L 937.1311584412248 365.04153159099997 L 861.2897414788914 365.04153159099997" stroke-miterlimit="10" stroke-width="1.9895439916666666" stroke-dasharray=""/><g transform="translate(841.6330468412248,365.04153159099997) translate(-841.6330468412248,-365.04153159099997)"><path fill="black" stroke="none" paint-order="stroke fill markers" d=" M 861.5284867578914 355.09381163266664 L 841.6330468412248 365.04153159099997 L 861.5284867578914 374.9892515493333 Z"/></g></g><g><text fill="black" stroke="none" font-family="sans-serif" font-size="11pt" font-style="normal" font-weight="normal" text-decoration="normal" x="154.77267205416422" y="486.8016238809999" text-anchor="start" dominant-baseline="alphabetic" xml:space="preserve">Beacon Monitoring and Ranging workflow </text><text fill="black" stroke="none" font-family="sans-serif" font-size="11pt" font-style="normal" font-weight="normal" text-decoration="normal" x="154.77267205416422" y="510.6761517809999" text-anchor="start" dominant-baseline="alphabetic" xml:space="preserve"> due to presence of a beacon nearby</text></g><g><path fill="none" stroke="black" paint-order="fill stroke markers" d=" M 47.749055799999994 520.2259629409999 L 477.9736828090431 520.2259629409999" stroke-miterlimit="10" stroke-width="1.9895439916666666" stroke-dasharray=""/><g transform="translate(497.63037744670976,520.2259629409999) translate(-497.63037744670976,-520.2259629409999)"><path fill="black" stroke="none" paint-order="stroke fill markers" d=" M 477.7349375300431 510.2782429826666 L 497.63037744670976 520.2259629409999 L 477.7349375300431 530.1736828993332 Z"/></g></g><g><text fill="black" stroke="none" font-family="sans-serif" font-size="11pt" font-style="normal" font-weight="normal" text-decoration="normal" x="529.4630813133765" y="577.524829901" text-anchor="start" dominant-baseline="alphabetic" xml:space="preserve">Event:onBeaconDetected(beacons)</text><text fill="black" stroke="none" font-family="sans-serif" font-size="11pt" font-style="normal" font-weight="normal" text-decoration="normal" x="529.4630813133765" y="601.399357801" text-anchor="start" dominant-baseline="alphabetic" xml:space="preserve">Beacon{uuid, major, minor, distance, rssi}</text></g><g><path fill="none" stroke="black" paint-order="fill stroke markers" d=" M 497.63037744670976 610.9491689609999 L 810.0390882535581 610.9491689609999" stroke-miterlimit="10" stroke-width="1.9895439916666666" stroke-dasharray=""/><g transform="translate(829.6957828912248,610.9491689609999) translate(-829.6957828912248,-610.9491689609999)"><path fill="black" stroke="none" paint-order="stroke fill markers" d=" M 809.8003429745581 601.0014490026666 L 829.6957828912248 610.9491689609999 L 809.8003429745581 620.8968889193333 Z"/></g></g><g><text fill="black" stroke="none" font-family="sans-serif" font-size="11pt" font-style="normal" font-weight="normal" text-decoration="normal" x="922.1196500404737" y="668.2480359209999" text-anchor="start" dominant-baseline="alphabetic" xml:space="preserve">GET beacons/&lt;UUID:major:minor&gt; </text><text fill="black" stroke="none" font-family="sans-serif" font-size="11pt" font-style="normal" font-weight="normal" text-decoration="normal" x="922.1196500404737" y="692.1225638209999" text-anchor="start" dominant-baseline="alphabetic" xml:space="preserve">for each detected beacon to fetch sensors</text></g><g><path fill="none" stroke="black" paint-order="fill stroke markers" d=" M 853.5703107912248 701.672374981 L 1243.3122957964652 701.672374981" stroke-miterlimit="10" stroke-width="1.9895439916666666" stroke-dasharray=""/><g transform="translate(1262.968990434132,701.672374981) translate(-1262.968990434132,-701.672374981)"><path fill="black" stroke="none" paint-order="stroke fill markers" d=" M 1243.0735505174653 691.7246550226666 L 1262.968990434132 701.672374981 L 1243.0735505174653 711.6200949393333 Z"/></g></g><g><text fill="black" stroke="none" font-family="sans-serif" font-size="11pt" font-style="normal" font-weight="normal" text-decoration="normal" x="1318.6762222007985" y="758.971241941" text-anchor="start" dominant-baseline="alphabetic" xml:space="preserve">query</text></g><g><path fill="none" stroke="black" paint-order="fill stroke markers" d=" M 1286.8435183341319 768.521053101 L 1367.4188970792125 768.521053101" stroke-miterlimit="10" stroke-width="1.9895439916666666" stroke-dasharray=""/><g transform="translate(1387.0755917168792,768.521053101) translate(-1387.0755917168792,-768.521053101)"><path fill="black" stroke="none" paint-order="stroke fill markers" d=" M 1367.1801518002126 758.5733331426667 L 1387.0755917168792 768.521053101 L 1367.1801518002126 778.4687730593333 Z"/></g></g><g><text fill="black" stroke="none" font-family="sans-serif" font-size="11pt" font-style="normal" font-weight="normal" text-decoration="normal" x="1319.0762218193288" y="825.8199200610001" text-anchor="start" dominant-baseline="alphabetic" xml:space="preserve">result</text></g><g><path fill="none" stroke="black" paint-order="fill stroke markers" d=" M 1387.0755917168792 835.369731221 L 1306.5002129717986 835.369731221" stroke-miterlimit="10" stroke-width="1.9895439916666666" stroke-dasharray="9.54981116"/><g transform="translate(1286.8435183341319,835.369731221) translate(-1286.8435183341319,-835.369731221)"><path fill="black" stroke="none" paint-order="stroke fill markers" d=" M 1306.7389582507985 825.4220112626667 L 1286.8435183341319 835.369731221 L 1306.7389582507985 845.3174511793334 Z"/></g></g><g><text fill="black" stroke="none" font-family="sans-serif" font-size="11pt" font-style="normal" font-weight="normal" text-decoration="normal" x="922.0863138779066" y="892.6685981810001" text-anchor="start" dominant-baseline="alphabetic" xml:space="preserve">Response containing sensors information </text><text fill="black" stroke="none" font-family="sans-serif" font-size="11pt" font-style="normal" font-weight="normal" text-decoration="normal" x="922.0863138779066" y="916.5431260810001" text-anchor="start" dominant-baseline="alphabetic" xml:space="preserve">associated with the specified beacons</text></g><g><path fill="none" stroke="black" paint-order="fill stroke markers" d=" M 1262.968990434132 926.0929372410001 L 873.2270054288914 926.0929372410001" stroke-miterlimit="10" stroke-width="1.9895439916666666" stroke-dasharray="9.54981116"/><g transform="translate(853.5703107912248,926.0929372410001) translate(-853.5703107912248,-926.0929372410001)"><path fill="black" stroke="none" paint-order="stroke fill markers" d=" M 873.4657507078914 916.1452172826667 L 853.5703107912248 926.0929372410001 L 873.4657507078914 936.0406571993334 Z"/></g></g><g><text fill="black" stroke="none" font-family="sans-serif" font-size="11pt" font-style="normal" font-weight="normal" text-decoration="normal" x="885.4030146578914" y="983.391804201" text-anchor="start" dominant-baseline="alphabetic" xml:space="preserve">Update UI with the list of nearby devices </text></g><g><path fill="none" stroke="black" paint-order="fill stroke markers" d=" M 853.5703107912248 992.9416153610001 L 949.0684223912248 992.9416153610001 L 949.0684223912248 1023.9785016310001 L 861.2897414788914 1023.9785016310001" stroke-miterlimit="10" stroke-width="1.9895439916666666" stroke-dasharray="9.54981116"/><g transform="translate(841.6330468412248,1023.9785016310001) translate(-841.6330468412248,-1023.9785016310001)"><path fill="black" stroke="none" paint-order="stroke fill markers" d=" M 861.5284867578914 1014.0307816726668 L 841.6330468412248 1023.9785016310001 L 861.5284867578914 1033.9262215893334 Z"/></g></g><g><g/><path fill="none" stroke="black" paint-order="fill stroke markers" d=" M 62.07377253999999 400.85332344099993 L 1482.5737033168791 400.85332344099993 L 1482.5737033168791 1059.7902934810002 L 62.07377253999999 1059.7902934810002 L 62.07377253999999 400.85332344099993 Z" stroke-miterlimit="10" stroke-width="3.410646842857143" stroke-dasharray=""/><path fill="white" stroke="black" paint-order="fill stroke markers" d=" M 62.07377253999999 400.85332344099993 L 62.07377253999999 429.5027569209999 L 134.68949513382324 429.5027569209999 L 149.01421187382323 415.1780401809999 L 149.01421187382323 400.85332344099993 L 62.07377253999999 400.85332344099993" stroke-miterlimit="10" stroke-width="3.410646842857143" stroke-dasharray=""/><text fill="black" stroke="none" font-family="sans-serif" font-size="8.8pt" font-style="normal" font-weight="bold" text-decoration="normal" x="85.94830044" y="419.9529457609999" text-anchor="start" dominant-baseline="alphabetic" xml:space="preserve">loop</text><g><rect fill="white" stroke="none" x="169.30756058882324" y="402.7632856729999" width="219.06235226648437" height="24.829509016000003"/></g><text fill="black" stroke="none" font-family="sans-serif" font-size="8.8pt" font-style="normal" font-weight="bold" text-decoration="normal" x="172.88873977382323" y="419.9529457609999" text-anchor="start" dominant-baseline="alphabetic" xml:space="preserve">[unless stopScanning(Beacon_UUID)]</text></g></g><g/><g/></g></svg>